<svg width="1564" height="510" viewBox="0 0 1564 510" fill="none" xmlns="http://www.w3.org/2000/svg">
<path fill-rule="evenodd" clip-rule="evenodd" d="M307 0H1257L1417.74 6.10352e-05L1564 254.622L1417.74 509.245H1125.26L1125.12 509H438.884L438.743 509.245H146.257L0 254.622L146.257 6.10352e-05L307 0Z" fill="#E60003"/>
<path fill-rule="evenodd" clip-rule="evenodd" d="M311 5H1253V5.00021H1412.83L1557.86 255.129L1412.83 505.258H1122.8L1122.65 505H442.205L442.056 505.258H152.028L7 255.129L152.028 5.00021H311V5Z" fill="black"/>
<path fill-rule="evenodd" clip-rule="evenodd" d="M318 15H1246V15.0001H1403.11L1546 254.645L1403.11 494.289H1117.36L1117.18 494H446.817L446.644 494.289H160.891L18 254.645L160.891 15.0001H318V15Z" fill="#E60003"/>
</svg>
