<!DOCTYPE svg PUBLIC "-//W3C//DTD SVG 1.1//EN" "http://www.w3.org/Graphics/SVG/1.1/DTD/svg11.dtd">
<!-- Uploaded to: SVG Repo, www.svgrepo.com, Transformed by: SVG Repo Mixer Tools -->
<svg fill="#ff0000" width="800px" height="800px" viewBox="0 0 32 32" version="1.1" xmlns="http://www.w3.org/2000/svg" stroke="#ff0000">
<g id="SVGRepo_bgCarrier" stroke-width="0"/>
<g id="SVGRepo_tracerCarrier" stroke-linecap="round" stroke-linejoin="round"/>
<g id="SVGRepo_iconCarrier"> <title>radar-dish</title> <path d="M14.313 1.003l0 0 0-0zM30.467 8.066c-0.54-0.935-1.735-1.255-2.671-0.715-0.705 0.407-1.060 1.187-0.962 1.947l-6.583 2-5.938-10.294c-3.469 3.284-5.122 8.047-4.481 12.693l-2.235 0.393 0.666 3.779-2.624 2.456 1.166 2.004 3.661-1.11 0.469 0.617-7.11 8.881h15.83l-1.046-5.642c3.083 1.285 6.584 1.506 9.889 0.52l-5.938-10.294 5.020-4.704c0.609 0.468 1.463 0.551 2.17 0.143 0.935-0.541 1.256-1.737 0.717-2.672z"/> </g>
</svg>