<svg width="956" height="97" viewBox="0 0 956 97" fill="none" xmlns="http://www.w3.org/2000/svg">
<g clip-path="url(#clip0_8_3)">
<rect x="48.8978" y="-23.3853" width="26" height="144.546" transform="rotate(21.9808 48.8978 -23.3853)" fill="#FC3B16"/>
<rect x="108.111" y="-23.3853" width="26" height="144.546" transform="rotate(21.9808 108.111 -23.3853)" fill="#FC3B16"/>
<rect x="167.324" y="-23.3853" width="26" height="144.546" transform="rotate(21.9808 167.324 -23.3853)" fill="#FC3B16"/>
<rect x="226.537" y="-23.3853" width="26" height="144.546" transform="rotate(21.9808 226.537 -23.3853)" fill="#FC3B16"/>
<rect x="285.75" y="-23.3853" width="26" height="144.546" transform="rotate(21.9808 285.75 -23.3853)" fill="#FC3B16"/>
<rect x="344.964" y="-23.3853" width="26" height="144.546" transform="rotate(21.9808 344.964 -23.3853)" fill="#FC3B16"/>
<rect x="404.177" y="-23.3853" width="26" height="144.546" transform="rotate(21.9808 404.177 -23.3853)" fill="#FC3B16"/>
<rect x="463.39" y="-23.3853" width="26" height="144.546" transform="rotate(21.9808 463.39 -23.3853)" fill="#FC3B16"/>
<rect x="522.603" y="-23.3853" width="26" height="144.546" transform="rotate(21.9808 522.603 -23.3853)" fill="#FC3B16"/>
<rect x="581.816" y="-23.3853" width="26" height="144.546" transform="rotate(21.9808 581.816 -23.3853)" fill="#FC3B16"/>
<rect x="641.03" y="-23.3853" width="26" height="144.546" transform="rotate(21.9808 641.03 -23.3853)" fill="#FC3B16"/>
<rect x="700.243" y="-23.3853" width="26" height="144.546" transform="rotate(21.9808 700.243 -23.3853)" fill="#FC3B16"/>
<rect x="759.456" y="-23.3853" width="26" height="144.546" transform="rotate(21.9808 759.456 -23.3853)" fill="#FC3B16"/>
<rect x="818.669" y="-23.3853" width="26" height="144.546" transform="rotate(21.9808 818.669 -23.3853)" fill="#FC3B16"/>
<rect x="877.882" y="-23.3853" width="26" height="144.546" transform="rotate(21.9808 877.882 -23.3853)" fill="#FC3B16"/>
<rect x="937.095" y="-23.3853" width="26" height="144.546" transform="rotate(21.9808 937.095 -23.3853)" fill="#FC3B16"/>
</g>
<defs>
<clipPath id="clip0_8_3">
<rect width="956" height="97" fill="white"/>
</clipPath>
</defs>
</svg>
