<svg width="256" height="227" viewBox="0 0 256 227" fill="none" xmlns="http://www.w3.org/2000/svg">
<rect x="3" y="3" width="250" height="221" fill="#E60003"/>
<rect x="3" y="3" width="250" height="221" stroke="black" stroke-width="6"/>
<g clip-path="url(#clip0_68_132)">
<rect width="247" height="68" transform="translate(5 159)" fill="#E60003"/>
<rect x="30.2562" y="123.635" width="12.5323" height="144.546" transform="rotate(21.9808 30.2562 123.635)" fill="black"/>
<rect x="51.9807" y="123.635" width="12.5323" height="144.546" transform="rotate(21.9808 51.9807 123.635)" fill="black"/>
<rect x="73.7052" y="123.635" width="12.5323" height="144.546" transform="rotate(21.9808 73.7052 123.635)" fill="black"/>
<rect x="95.4297" y="123.635" width="12.5323" height="144.546" transform="rotate(21.9808 95.4297 123.635)" fill="black"/>
<rect x="117.154" y="123.635" width="12.5323" height="144.546" transform="rotate(21.9808 117.154 123.635)" fill="black"/>
<rect x="138.879" y="123.635" width="12.5323" height="144.546" transform="rotate(21.9808 138.879 123.635)" fill="black"/>
<rect x="160.603" y="123.635" width="12.5323" height="144.546" transform="rotate(21.9808 160.603 123.635)" fill="black"/>
<rect x="182.328" y="123.635" width="12.5323" height="144.546" transform="rotate(21.9808 182.328 123.635)" fill="black"/>
<rect x="204.052" y="123.635" width="12.5323" height="144.546" transform="rotate(21.9808 204.052 123.635)" fill="black"/>
<rect x="225.777" y="123.635" width="12.5323" height="144.546" transform="rotate(21.9808 225.777 123.635)" fill="black"/>
<rect x="247.501" y="123.635" width="12.5323" height="144.546" transform="rotate(21.9808 247.501 123.635)" fill="black"/>
<rect x="269.226" y="123.635" width="12.5323" height="144.546" transform="rotate(21.9808 269.226 123.635)" fill="black"/>
</g>
<path d="M78.0543 84.3125C77.8554 83.6212 77.576 83.0104 77.2162 82.4801C76.8563 81.9403 76.416 81.4858 75.8952 81.1165C75.3838 80.7377 74.7967 80.4489 74.1338 80.25C73.4804 80.0511 72.756 79.9517 71.9605 79.9517C70.4738 79.9517 69.1669 80.321 68.0401 81.0597C66.9226 81.7983 66.0514 82.8731 65.4264 84.2841C64.8014 85.6856 64.4889 87.3996 64.4889 89.4261C64.4889 91.4527 64.7967 93.1761 65.4122 94.5966C66.0277 96.017 66.899 97.1013 68.0258 97.8494C69.1527 98.5881 70.4832 98.9574 72.0173 98.9574C73.4094 98.9574 74.5978 98.7112 75.5827 98.2188C76.577 97.7169 77.3346 97.0114 77.8554 96.1023C78.3857 95.1932 78.6508 94.1184 78.6508 92.8778L79.9008 93.0625H72.4009V88.4318H84.5741V92.0966C84.5741 94.6534 84.0344 96.8504 82.9548 98.6875C81.8753 100.515 80.3885 101.926 78.4946 102.92C76.6007 103.905 74.4321 104.398 71.9889 104.398C69.2616 104.398 66.8658 103.796 64.8014 102.594C62.737 101.382 61.1272 99.6629 59.9719 97.4375C58.826 95.2027 58.2531 92.5511 58.2531 89.483C58.2531 87.125 58.594 85.0227 59.2758 83.1761C59.9671 81.3201 60.933 79.7481 62.1736 78.4602C63.4141 77.1723 64.8582 76.1922 66.506 75.5199C68.1537 74.8475 69.9387 74.5114 71.8611 74.5114C73.5088 74.5114 75.0429 74.7528 76.4633 75.2358C77.8838 75.7093 79.1433 76.3816 80.2418 77.2528C81.3497 78.1241 82.2541 79.161 82.9548 80.3636C83.6556 81.5568 84.1054 82.8731 84.3043 84.3125H78.0543ZM89.1942 104V74.9091H108.796V79.9801H95.3447V86.9119H107.788V91.983H95.3447V98.929H108.853V104H89.1942ZM113.686 74.9091H121.272L129.283 94.4545H129.624L137.635 74.9091H145.22V104H139.255V85.0653H139.013L131.485 103.858H127.422L119.894 84.9943H119.652V104H113.686V74.9091ZM150.288 104V74.9091H161.765C163.972 74.9091 165.851 75.3305 167.404 76.1733C168.957 77.0066 170.141 78.1667 170.956 79.6534C171.779 81.1307 172.191 82.8352 172.191 84.767C172.191 86.6989 171.775 88.4034 170.941 89.8807C170.108 91.358 168.901 92.5085 167.319 93.3324C165.747 94.1562 163.844 94.5682 161.609 94.5682H154.294V89.6392H160.615C161.798 89.6392 162.774 89.4356 163.541 89.0284C164.317 88.6117 164.895 88.0388 165.274 87.3097C165.662 86.571 165.856 85.7235 165.856 84.767C165.856 83.8011 165.662 82.9583 165.274 82.2386C164.895 81.5095 164.317 80.946 163.541 80.5483C162.764 80.1411 161.779 79.9375 160.586 79.9375H156.438V104H150.288ZM177.841 104H171.25L181.293 74.9091H189.219L199.247 104H192.657L185.37 81.5568H185.142L177.841 104ZM177.429 92.5653H192.997V97.3665H177.429V92.5653ZM79.0379 152V122.909H90.6857C92.8258 122.909 94.6108 123.226 96.0408 123.861C97.4707 124.495 98.5455 125.376 99.2652 126.503C99.9849 127.62 100.345 128.908 100.345 130.366C100.345 131.503 100.117 132.502 99.6629 133.364C99.2084 134.216 98.5834 134.917 97.7879 135.466C97.0019 136.006 96.1023 136.389 95.0891 136.616V136.901C96.197 136.948 97.2339 137.26 98.1999 137.838C99.1752 138.416 99.966 139.225 100.572 140.267C101.178 141.299 101.481 142.53 101.481 143.96C101.481 145.504 101.098 146.882 100.331 148.094C99.573 149.296 98.4508 150.248 96.9641 150.949C95.4773 151.65 93.6449 152 91.4669 152H79.0379ZM85.1885 146.972H90.2027C91.9167 146.972 93.1667 146.645 93.9527 145.991C94.7387 145.329 95.1317 144.448 95.1317 143.349C95.1317 142.545 94.9375 141.834 94.5493 141.219C94.161 140.603 93.6071 140.12 92.8874 139.77C92.1771 139.42 91.3296 139.244 90.3447 139.244H85.1885V146.972ZM85.1885 135.082H89.7482C90.591 135.082 91.3391 134.936 91.9925 134.642C92.6553 134.339 93.1762 133.913 93.555 133.364C93.9432 132.814 94.1374 132.156 94.1374 131.389C94.1374 130.338 93.7633 129.491 93.0152 128.847C92.2766 128.203 91.2254 127.881 89.8618 127.881H85.1885V135.082ZM123.452 122.909H129.603V141.801C129.603 143.922 129.096 145.778 128.083 147.369C127.079 148.96 125.673 150.201 123.864 151.091C122.055 151.972 119.948 152.412 117.543 152.412C115.128 152.412 113.016 151.972 111.208 151.091C109.399 150.201 107.993 148.96 106.989 147.369C105.985 145.778 105.483 143.922 105.483 141.801V122.909H111.634V141.276C111.634 142.384 111.875 143.368 112.358 144.23C112.851 145.092 113.542 145.769 114.432 146.261C115.322 146.754 116.359 147 117.543 147C118.736 147 119.773 146.754 120.654 146.261C121.544 145.769 122.23 145.092 122.713 144.23C123.206 143.368 123.452 142.384 123.452 141.276V122.909ZM134.663 122.909H142.248L150.26 142.455H150.6L158.612 122.909H166.197V152H160.231V133.065H159.99L152.461 151.858H148.399L140.87 132.994H140.629V152H134.663V122.909ZM177.415 122.909V152H171.264V122.909H177.415Z" fill="black"/>
<g clip-path="url(#clip1_68_132)">
<rect width="247" height="68" transform="translate(5)" fill="#E60003"/>
<rect x="30.2562" y="-35.3647" width="12.5323" height="144.546" transform="rotate(21.9808 30.2562 -35.3647)" fill="black"/>
<rect x="51.9807" y="-35.3647" width="12.5323" height="144.546" transform="rotate(21.9808 51.9807 -35.3647)" fill="black"/>
<rect x="73.7052" y="-35.3647" width="12.5323" height="144.546" transform="rotate(21.9808 73.7052 -35.3647)" fill="black"/>
<rect x="95.4297" y="-35.3647" width="12.5323" height="144.546" transform="rotate(21.9808 95.4297 -35.3647)" fill="black"/>
<rect x="117.154" y="-35.3647" width="12.5323" height="144.546" transform="rotate(21.9808 117.154 -35.3647)" fill="black"/>
<rect x="138.879" y="-35.3647" width="12.5323" height="144.546" transform="rotate(21.9808 138.879 -35.3647)" fill="black"/>
<rect x="160.603" y="-35.3647" width="12.5323" height="144.546" transform="rotate(21.9808 160.603 -35.3647)" fill="black"/>
<rect x="182.328" y="-35.3647" width="12.5323" height="144.546" transform="rotate(21.9808 182.328 -35.3647)" fill="black"/>
<rect x="204.052" y="-35.3647" width="12.5323" height="144.546" transform="rotate(21.9808 204.052 -35.3647)" fill="black"/>
<rect x="225.777" y="-35.3647" width="12.5323" height="144.546" transform="rotate(21.9808 225.777 -35.3647)" fill="black"/>
<rect x="247.501" y="-35.3647" width="12.5323" height="144.546" transform="rotate(21.9808 247.501 -35.3647)" fill="black"/>
<rect x="269.226" y="-35.3647" width="12.5323" height="144.546" transform="rotate(21.9808 269.226 -35.3647)" fill="black"/>
</g>
<defs>
<clipPath id="clip0_68_132">
<rect width="247" height="68" fill="white" transform="translate(5 159)"/>
</clipPath>
<clipPath id="clip1_68_132">
<rect width="247" height="68" fill="white" transform="translate(5)"/>
</clipPath>
</defs>
</svg>
