<svg width="584" height="507" viewBox="0 0 584 507" fill="none" xmlns="http://www.w3.org/2000/svg">
<path d="M145.77 507L0 253.5L145.77 -3.05176e-05H437.28L583.05 253.5L437.28 507H145.77Z" fill="#E60003"/>
<path d="M149.046 500.648L6.92932 253.5L149.046 6.35181H433.253L575.37 253.5L433.253 500.648H149.046Z" fill="black"/>
<path d="M155.007 492L18 253.5L155.007 15H428.993L566 253.5L428.993 492H155.007Z" fill="#E60003"/>
<path d="M158.256 485L25 253L158.256 21H424.744L558 253L424.744 485H158.256Z" fill="black"/>
<path d="M291 114L334.301 189H247.699L291 114Z" fill="#E60003"/>
<path d="M291 415L334.301 340H247.699L291 415Z" fill="#E60003"/>
<path d="M163.219 272.25L172.25 240.5H176.625L174.094 252.844L164.375 286H160.031L163.219 272.25ZM153.875 240.5L161.062 271.625L163.219 286H158.906L147.875 240.5H153.875ZM188.312 271.594L195.344 240.5H201.375L190.375 286H186.062L188.312 271.594ZM177.281 240.5L186.062 272.25L189.25 286H184.906L175.531 252.844L172.969 240.5H177.281ZM223.531 244.531L208.469 286H202.312L219.656 240.5H223.625L223.531 244.531ZM236.156 286L221.062 244.531L220.969 240.5H224.938L242.344 286H236.156ZM235.375 269.156V274.094H209.812V269.156H235.375ZM248.438 240.5H263.5C266.917 240.5 269.802 241.021 272.156 242.062C274.531 243.104 276.333 244.646 277.562 246.688C278.812 248.708 279.438 251.198 279.438 254.156C279.438 256.24 279.01 258.146 278.156 259.875C277.323 261.583 276.115 263.042 274.531 264.25C272.969 265.438 271.094 266.323 268.906 266.906L267.219 267.562H253.062L253 262.656H263.688C265.854 262.656 267.656 262.281 269.094 261.531C270.531 260.76 271.615 259.729 272.344 258.438C273.073 257.146 273.438 255.719 273.438 254.156C273.438 252.406 273.094 250.875 272.406 249.562C271.719 248.25 270.635 247.24 269.156 246.531C267.698 245.802 265.812 245.438 263.5 245.438H254.469V286H248.438V240.5ZM275.031 286L263.969 265.375L270.25 265.344L281.469 285.625V286H275.031ZM322.875 240.5V286H316.812L293.906 250.906V286H287.875V240.5H293.906L316.906 275.688V240.5H322.875ZM340.031 240.5V286H334V240.5H340.031ZM386 240.5V286H379.938L357.031 250.906V286H351V240.5H357.031L380.031 275.688V240.5H386ZM430.312 263.344V280C429.75 280.833 428.854 281.771 427.625 282.812C426.396 283.833 424.698 284.729 422.531 285.5C420.385 286.25 417.615 286.625 414.219 286.625C411.448 286.625 408.896 286.146 406.562 285.188C404.25 284.208 402.24 282.792 400.531 280.938C398.844 279.062 397.531 276.792 396.594 274.125C395.677 271.438 395.219 268.396 395.219 265V261.469C395.219 258.073 395.615 255.042 396.406 252.375C397.219 249.708 398.406 247.448 399.969 245.594C401.531 243.719 403.448 242.302 405.719 241.344C407.99 240.365 410.594 239.875 413.531 239.875C417.01 239.875 419.917 240.479 422.25 241.688C424.604 242.875 426.438 244.521 427.75 246.625C429.083 248.729 429.938 251.125 430.312 253.812H424.281C424.01 252.167 423.469 250.667 422.656 249.312C421.865 247.958 420.729 246.875 419.25 246.062C417.771 245.229 415.865 244.812 413.531 244.812C411.427 244.812 409.604 245.198 408.062 245.969C406.521 246.74 405.25 247.844 404.25 249.281C403.25 250.719 402.5 252.458 402 254.5C401.521 256.542 401.281 258.844 401.281 261.406V265C401.281 267.625 401.583 269.969 402.188 272.031C402.812 274.094 403.698 275.854 404.844 277.312C405.99 278.75 407.354 279.844 408.938 280.594C410.542 281.344 412.312 281.719 414.25 281.719C416.396 281.719 418.135 281.542 419.469 281.188C420.802 280.812 421.844 280.375 422.594 279.875C423.344 279.354 423.917 278.865 424.312 278.406V268.219H413.781V263.344H430.312Z" fill="#E60003"/>
</svg>
