<svg width="264" height="416" viewBox="0 0 264 416" fill="none" xmlns="http://www.w3.org/2000/svg">
<g clip-path="url(#clip0_68_61)">
<rect x="15.0967" y="-37.0891" width="11.0588" height="144.546" transform="rotate(21.9808 15.0967 -37.0891)" fill="#FCAE16"/>
<rect x="36.4548" y="-37.0891" width="11.0588" height="144.546" transform="rotate(21.9808 36.4548 -37.0891)" fill="#FCAE16"/>
<rect x="57.8128" y="-37.0891" width="11.0588" height="144.546" transform="rotate(21.9808 57.8128 -37.0891)" fill="#FCAE16"/>
<rect x="79.1709" y="-37.0891" width="11.0588" height="144.546" transform="rotate(21.9808 79.1709 -37.0891)" fill="#FCAE16"/>
<rect x="100.529" y="-37.0891" width="11.0588" height="144.546" transform="rotate(21.9808 100.529 -37.0891)" fill="#FCAE16"/>
<rect x="121.887" y="-37.0891" width="11.0588" height="144.546" transform="rotate(21.9808 121.887 -37.0891)" fill="#FCAE16"/>
<rect x="143.245" y="-37.0891" width="11.0588" height="144.546" transform="rotate(21.9808 143.245 -37.0891)" fill="#FCAE16"/>
<rect x="164.603" y="-37.0891" width="11.0588" height="144.546" transform="rotate(21.9808 164.603 -37.0891)" fill="#FCAE16"/>
<rect x="185.961" y="-37.0891" width="11.0588" height="144.546" transform="rotate(21.9808 185.961 -37.0891)" fill="#FCAE16"/>
<rect x="207.319" y="-37.0891" width="11.0588" height="144.546" transform="rotate(21.9808 207.319 -37.0891)" fill="#FCAE16"/>
<rect x="228.677" y="-37.0891" width="11.0588" height="144.546" transform="rotate(21.9808 228.677 -37.0891)" fill="#FCAE16"/>
<rect x="250.035" y="-37.0891" width="11.0588" height="144.546" transform="rotate(21.9808 250.035 -37.0891)" fill="#FCAE16"/>
<rect x="271.393" y="-37.0891" width="11.0588" height="144.546" transform="rotate(21.9808 271.393 -37.0891)" fill="#FCAE16"/>
<rect x="292.751" y="-37.0891" width="11.0588" height="144.546" transform="rotate(21.9808 292.751 -37.0891)" fill="#FCAE16"/>
</g>
<g clip-path="url(#clip1_68_61)">
<rect x="15.0967" y="314.911" width="11.0588" height="144.546" transform="rotate(21.9808 15.0967 314.911)" fill="#FCAE16"/>
<rect x="36.4548" y="314.911" width="11.0588" height="144.546" transform="rotate(21.9808 36.4548 314.911)" fill="#FCAE16"/>
<rect x="57.8128" y="314.911" width="11.0588" height="144.546" transform="rotate(21.9808 57.8128 314.911)" fill="#FCAE16"/>
<rect x="79.1709" y="314.911" width="11.0588" height="144.546" transform="rotate(21.9808 79.1709 314.911)" fill="#FCAE16"/>
<rect x="100.529" y="314.911" width="11.0588" height="144.546" transform="rotate(21.9808 100.529 314.911)" fill="#FCAE16"/>
<rect x="121.887" y="314.911" width="11.0588" height="144.546" transform="rotate(21.9808 121.887 314.911)" fill="#FCAE16"/>
<rect x="143.245" y="314.911" width="11.0588" height="144.546" transform="rotate(21.9808 143.245 314.911)" fill="#FCAE16"/>
<rect x="164.603" y="314.911" width="11.0588" height="144.546" transform="rotate(21.9808 164.603 314.911)" fill="#FCAE16"/>
<rect x="185.961" y="314.911" width="11.0588" height="144.546" transform="rotate(21.9808 185.961 314.911)" fill="#FCAE16"/>
<rect x="207.319" y="314.911" width="11.0588" height="144.546" transform="rotate(21.9808 207.319 314.911)" fill="#FCAE16"/>
<rect x="228.677" y="314.911" width="11.0588" height="144.546" transform="rotate(21.9808 228.677 314.911)" fill="#FCAE16"/>
<rect x="250.035" y="314.911" width="11.0588" height="144.546" transform="rotate(21.9808 250.035 314.911)" fill="#FCAE16"/>
<rect x="271.393" y="314.911" width="11.0588" height="144.546" transform="rotate(21.9808 271.393 314.911)" fill="#FCAE16"/>
<rect x="292.751" y="314.911" width="11.0588" height="144.546" transform="rotate(21.9808 292.751 314.911)" fill="#FCAE16"/>
</g>
<path d="M44.9498 102.039C44.6068 100.847 44.1249 99.793 43.5042 98.8782C42.8834 97.9471 42.1238 97.163 41.2254 96.5259C40.3433 95.8725 39.3305 95.3743 38.1871 95.0312C37.0599 94.6882 35.8103 94.5167 34.4381 94.5167C31.8735 94.5167 29.6192 95.1538 27.6753 96.4279C25.7478 97.7021 24.2449 99.5561 23.1668 101.99C22.0887 104.408 21.5496 107.364 21.5496 110.86C21.5496 114.356 22.0805 117.329 23.1423 119.779C24.2041 122.229 25.7069 124.1 27.6508 125.39C29.5947 126.664 31.8898 127.301 34.5361 127.301C36.9374 127.301 38.9875 126.877 40.6863 126.027C42.4015 125.162 43.7084 123.945 44.6068 122.376C45.5216 120.808 45.979 118.954 45.979 116.814L48.1352 117.133H35.1977V109.145H56.1966V115.467C56.1966 119.877 55.2655 123.667 53.4033 126.836C51.5411 129.989 48.9765 132.423 45.7094 134.138C42.4424 135.837 38.7016 136.686 34.4871 136.686C29.7826 136.686 25.6498 135.649 22.0887 133.574C18.5276 131.483 15.7506 128.518 13.7577 124.68C11.7812 120.825 10.7929 116.251 10.7929 110.958C10.7929 106.891 11.3809 103.264 12.5571 100.079C13.7496 96.8771 15.4157 94.1655 17.5557 91.9439C19.6956 89.7223 22.1867 88.0316 25.029 86.8718C27.8714 85.712 30.9506 85.1321 34.2666 85.1321C37.1089 85.1321 39.7552 85.5486 42.2055 86.3817C44.6558 87.1985 46.8284 88.3583 48.7233 89.8611C50.6345 91.364 52.1945 93.1527 53.4033 95.2273C54.6121 97.2855 55.3881 99.5561 55.7311 102.039H44.9498ZM64.1662 136V85.8182H97.9801V94.5657H74.7759V106.523H96.2404V115.271H74.7759V127.252H98.0781V136H64.1662ZM106.415 85.8182H119.5L133.319 119.534H133.907L147.727 85.8182H160.812V136H150.52V103.338H150.104L137.117 135.755H130.109L117.123 103.215H116.706V136H106.415V85.8182ZM169.553 136V85.8182H189.351C193.157 85.8182 196.4 86.5451 199.079 87.9989C201.758 89.4364 203.8 91.4375 205.205 94.0021C206.626 96.5504 207.336 99.4908 207.336 102.823C207.336 106.156 206.618 109.096 205.18 111.644C203.743 114.192 201.66 116.177 198.932 117.598C196.22 119.02 192.937 119.73 189.082 119.73H176.463V111.228H187.366C189.408 111.228 191.091 110.876 192.414 110.174C193.754 109.455 194.75 108.467 195.403 107.209C196.073 105.935 196.408 104.473 196.408 102.823C196.408 101.157 196.073 99.7031 195.403 98.4616C194.75 97.2038 193.754 96.2319 192.414 95.5458C191.075 94.8434 189.376 94.4922 187.317 94.4922H180.163V136H169.553ZM217.082 136H205.713L223.036 85.8182H236.709L254.008 136H242.639L230.069 97.2855H229.677L217.082 136ZM216.372 116.275H243.227V124.557H216.372V116.275Z" fill="#E60003"/>
<path d="M13.4432 217V147.182H41.3977C46.5341 147.182 50.8182 147.943 54.25 149.466C57.6818 150.989 60.2614 153.102 61.9886 155.807C63.7159 158.489 64.5795 161.58 64.5795 165.08C64.5795 167.807 64.0341 170.205 62.9432 172.273C61.8523 174.318 60.3523 176 58.4432 177.318C56.5568 178.614 54.3977 179.534 51.9659 180.08V180.761C54.625 180.875 57.1136 181.625 59.4318 183.011C61.7727 184.398 63.6705 186.341 65.125 188.841C66.5795 191.318 67.3068 194.273 67.3068 197.705C67.3068 201.409 66.3864 204.716 64.5455 207.625C62.7273 210.511 60.0341 212.795 56.4659 214.477C52.8977 216.159 48.5 217 43.2727 217H13.4432ZM28.2045 204.932H40.2386C44.3523 204.932 47.3523 204.148 49.2386 202.58C51.125 200.989 52.0682 198.875 52.0682 196.239C52.0682 194.307 51.6023 192.602 50.6705 191.125C49.7386 189.648 48.4091 188.489 46.6818 187.648C44.9773 186.807 42.9432 186.386 40.5795 186.386H28.2045V204.932ZM28.2045 176.398H39.1477C41.1705 176.398 42.9659 176.045 44.5341 175.341C46.125 174.614 47.375 173.591 48.2841 172.273C49.2159 170.955 49.6818 169.375 49.6818 167.534C49.6818 165.011 48.7841 162.977 46.9886 161.432C45.2159 159.886 42.6932 159.114 39.4205 159.114H28.2045V176.398ZM120.037 147.182H134.798V192.523C134.798 197.614 133.582 202.068 131.151 205.886C128.741 209.705 125.366 212.682 121.026 214.818C116.685 216.932 111.628 217.989 105.855 217.989C100.06 217.989 94.9915 216.932 90.6506 214.818C86.3097 212.682 82.9347 209.705 80.5256 205.886C78.1165 202.068 76.9119 197.614 76.9119 192.523V147.182H91.6733V191.261C91.6733 193.92 92.2528 196.284 93.4119 198.352C94.5938 200.42 96.2528 202.045 98.3892 203.227C100.526 204.409 103.014 205 105.855 205C108.719 205 111.207 204.409 113.321 203.227C115.457 202.045 117.105 200.42 118.264 198.352C119.446 196.284 120.037 193.92 120.037 191.261V147.182ZM146.943 147.182H165.148L184.375 194.091H185.193L204.42 147.182H222.625V217H208.307V171.557H207.727L189.659 216.659H179.909L161.841 171.386H161.261V217H146.943V147.182ZM249.548 147.182V217H234.787V147.182H249.548Z" fill="#E60003"/>
<rect x="4.5" y="233.5" width="255" height="101" stroke="#E60003" stroke-width="9"/>
<path d="M38.5057 307H27.9602L44.0284 260.455H56.7102L72.7557 307H62.2102L50.5511 271.091H50.1875L38.5057 307ZM37.8466 288.705H62.7557V296.386H37.8466V288.705ZM78.358 307V260.455H88.1989V298.886H108.153V307H78.358ZM114.67 307V260.455H146.034V268.568H124.511V279.659H144.42V287.773H124.511V298.886H146.125V307H114.67ZM153.858 307V260.455H172.222C175.737 260.455 178.737 261.083 181.222 262.341C183.722 263.583 185.623 265.348 186.926 267.636C188.244 269.909 188.903 272.583 188.903 275.659C188.903 278.75 188.237 281.409 186.903 283.636C185.57 285.848 183.638 287.545 181.108 288.727C178.593 289.909 175.547 290.5 171.972 290.5H159.676V282.591H170.381C172.259 282.591 173.82 282.333 175.062 281.818C176.305 281.303 177.229 280.53 177.835 279.5C178.456 278.47 178.767 277.189 178.767 275.659C178.767 274.114 178.456 272.811 177.835 271.75C177.229 270.689 176.297 269.886 175.04 269.341C173.797 268.78 172.229 268.5 170.335 268.5H163.699V307H153.858ZM178.994 285.818L190.562 307H179.699L168.381 285.818H178.994ZM194.085 268.568V260.455H232.312V268.568H218.062V307H208.335V268.568H194.085Z" fill="#E60003"/>
<defs>
<clipPath id="clip0_68_61">
<rect width="264" height="64" fill="white"/>
</clipPath>
<clipPath id="clip1_68_61">
<rect width="264" height="64" fill="white" transform="translate(0 352)"/>
</clipPath>
</defs>
</svg>
